<svg xmlns="http://www.w3.org/2000/svg" viewBox="0 0 720 552" width="720" height="552" role="img" aria-labelledby="t d" font-family="'Archivo', system-ui, -apple-system, 'Segoe UI', sans-serif" font-size="12">
<title id="t">Manufacturer-specific codes per make</title><desc id="d">Top 15 of 32 makes, 6,637 manufacturer-specific codes</desc>
<rect width="720" height="552" fill="#1b1e22"/>
<text x="20" y="26" font-size="15" font-weight="600" fill="#f1efe8">Manufacturer-specific codes per make</text>
<text x="20" y="44" font-size="12" fill="#9aa3ad">Top 15 of 32 makes, 6,637 manufacturer-specific codes</text>
<line x1="142" y1="56" x2="142" y2="512" stroke="#2e333a" stroke-width="1"/>
<g><title>Volkswagen: 528 (8.0%)</title><rect x="0" y="62" width="720" height="30" fill="transparent"/><path d="M142 68.0 h474.0 a4 4 0 0 1 4 4 v10 a4 4 0 0 1 -4 4 h-474.0 z" fill="#ffb000"/><text x="132" y="81.0" text-anchor="end" fill="#f1efe8">Volkswagen</text><text x="628.0" y="81.0" fill="#9aa3ad" font-family="'IBM Plex Mono', ui-monospace, Menlo, Consolas, monospace" font-size="11">528 (8.0%)</text></g>
<g><title>Ford: 413 (6.2%)</title><rect x="0" y="92" width="720" height="30" fill="transparent"/><path d="M142 98.0 h369.9 a4 4 0 0 1 4 4 v10 a4 4 0 0 1 -4 4 h-369.9 z" fill="#ffb000"/><text x="132" y="111.0" text-anchor="end" fill="#f1efe8">Ford</text><text x="523.9" y="111.0" fill="#9aa3ad" font-family="'IBM Plex Mono', ui-monospace, Menlo, Consolas, monospace" font-size="11">413 (6.2%)</text></g>
<g><title>Lincoln: 413 (6.2%)</title><rect x="0" y="122" width="720" height="30" fill="transparent"/><path d="M142 128.0 h369.9 a4 4 0 0 1 4 4 v10 a4 4 0 0 1 -4 4 h-369.9 z" fill="#ffb000"/><text x="132" y="141.0" text-anchor="end" fill="#f1efe8">Lincoln</text><text x="523.9" y="141.0" fill="#9aa3ad" font-family="'IBM Plex Mono', ui-monospace, Menlo, Consolas, monospace" font-size="11">413 (6.2%)</text></g>
<g><title>Mercury: 413 (6.2%)</title><rect x="0" y="152" width="720" height="30" fill="transparent"/><path d="M142 158.0 h369.9 a4 4 0 0 1 4 4 v10 a4 4 0 0 1 -4 4 h-369.9 z" fill="#ffb000"/><text x="132" y="171.0" text-anchor="end" fill="#f1efe8">Mercury</text><text x="523.9" y="171.0" fill="#9aa3ad" font-family="'IBM Plex Mono', ui-monospace, Menlo, Consolas, monospace" font-size="11">413 (6.2%)</text></g>
<g><title>Buick: 402 (6.1%)</title><rect x="0" y="182" width="720" height="30" fill="transparent"/><path d="M142 188.0 h359.9 a4 4 0 0 1 4 4 v10 a4 4 0 0 1 -4 4 h-359.9 z" fill="#ffb000"/><text x="132" y="201.0" text-anchor="end" fill="#f1efe8">Buick</text><text x="513.9" y="201.0" fill="#9aa3ad" font-family="'IBM Plex Mono', ui-monospace, Menlo, Consolas, monospace" font-size="11">402 (6.1%)</text></g>
<g><title>Cadillac: 402 (6.1%)</title><rect x="0" y="212" width="720" height="30" fill="transparent"/><path d="M142 218.0 h359.9 a4 4 0 0 1 4 4 v10 a4 4 0 0 1 -4 4 h-359.9 z" fill="#ffb000"/><text x="132" y="231.0" text-anchor="end" fill="#f1efe8">Cadillac</text><text x="513.9" y="231.0" fill="#9aa3ad" font-family="'IBM Plex Mono', ui-monospace, Menlo, Consolas, monospace" font-size="11">402 (6.1%)</text></g>
<g><title>Chevrolet: 402 (6.1%)</title><rect x="0" y="242" width="720" height="30" fill="transparent"/><path d="M142 248.0 h359.9 a4 4 0 0 1 4 4 v10 a4 4 0 0 1 -4 4 h-359.9 z" fill="#ffb000"/><text x="132" y="261.0" text-anchor="end" fill="#f1efe8">Chevrolet</text><text x="513.9" y="261.0" fill="#9aa3ad" font-family="'IBM Plex Mono', ui-monospace, Menlo, Consolas, monospace" font-size="11">402 (6.1%)</text></g>
<g><title>GM: 402 (6.1%)</title><rect x="0" y="272" width="720" height="30" fill="transparent"/><path d="M142 278.0 h359.9 a4 4 0 0 1 4 4 v10 a4 4 0 0 1 -4 4 h-359.9 z" fill="#ffb000"/><text x="132" y="291.0" text-anchor="end" fill="#f1efe8">GM</text><text x="513.9" y="291.0" fill="#9aa3ad" font-family="'IBM Plex Mono', ui-monospace, Menlo, Consolas, monospace" font-size="11">402 (6.1%)</text></g>
<g><title>GMC: 402 (6.1%)</title><rect x="0" y="302" width="720" height="30" fill="transparent"/><path d="M142 308.0 h359.9 a4 4 0 0 1 4 4 v10 a4 4 0 0 1 -4 4 h-359.9 z" fill="#ffb000"/><text x="132" y="321.0" text-anchor="end" fill="#f1efe8">GMC</text><text x="513.9" y="321.0" fill="#9aa3ad" font-family="'IBM Plex Mono', ui-monospace, Menlo, Consolas, monospace" font-size="11">402 (6.1%)</text></g>
<g><title>Saturn: 402 (6.1%)</title><rect x="0" y="332" width="720" height="30" fill="transparent"/><path d="M142 338.0 h359.9 a4 4 0 0 1 4 4 v10 a4 4 0 0 1 -4 4 h-359.9 z" fill="#ffb000"/><text x="132" y="351.0" text-anchor="end" fill="#f1efe8">Saturn</text><text x="513.9" y="351.0" fill="#9aa3ad" font-family="'IBM Plex Mono', ui-monospace, Menlo, Consolas, monospace" font-size="11">402 (6.1%)</text></g>
<g><title>Oldsmobile: 401 (6.0%)</title><rect x="0" y="362" width="720" height="30" fill="transparent"/><path d="M142 368.0 h359.0 a4 4 0 0 1 4 4 v10 a4 4 0 0 1 -4 4 h-359.0 z" fill="#ffb000"/><text x="132" y="381.0" text-anchor="end" fill="#f1efe8">Oldsmobile</text><text x="513.0" y="381.0" fill="#9aa3ad" font-family="'IBM Plex Mono', ui-monospace, Menlo, Consolas, monospace" font-size="11">401 (6.0%)</text></g>
<g><title>Chrysler: 282 (4.2%)</title><rect x="0" y="392" width="720" height="30" fill="transparent"/><path d="M142 398.0 h251.3 a4 4 0 0 1 4 4 v10 a4 4 0 0 1 -4 4 h-251.3 z" fill="#ffb000"/><text x="132" y="411.0" text-anchor="end" fill="#f1efe8">Chrysler</text><text x="405.3" y="411.0" fill="#9aa3ad" font-family="'IBM Plex Mono', ui-monospace, Menlo, Consolas, monospace" font-size="11">282 (4.2%)</text></g>
<g><title>BMW: 250 (3.8%)</title><rect x="0" y="422" width="720" height="30" fill="transparent"/><path d="M142 428.0 h222.3 a4 4 0 0 1 4 4 v10 a4 4 0 0 1 -4 4 h-222.3 z" fill="#ffb000"/><text x="132" y="441.0" text-anchor="end" fill="#f1efe8">BMW</text><text x="376.3" y="441.0" fill="#9aa3ad" font-family="'IBM Plex Mono', ui-monospace, Menlo, Consolas, monospace" font-size="11">250 (3.8%)</text></g>
<g><title>Mazda: 233 (3.5%)</title><rect x="0" y="452" width="720" height="30" fill="transparent"/><path d="M142 458.0 h206.9 a4 4 0 0 1 4 4 v10 a4 4 0 0 1 -4 4 h-206.9 z" fill="#ffb000"/><text x="132" y="471.0" text-anchor="end" fill="#f1efe8">Mazda</text><text x="360.9" y="471.0" fill="#9aa3ad" font-family="'IBM Plex Mono', ui-monospace, Menlo, Consolas, monospace" font-size="11">233 (3.5%)</text></g>
<g><title>Jaguar: 163 (2.5%)</title><rect x="0" y="482" width="720" height="30" fill="transparent"/><path d="M142 488.0 h143.6 a4 4 0 0 1 4 4 v10 a4 4 0 0 1 -4 4 h-143.6 z" fill="#ffb000"/><text x="132" y="501.0" text-anchor="end" fill="#f1efe8">Jaguar</text><text x="297.6" y="501.0" fill="#9aa3ad" font-family="'IBM Plex Mono', ui-monospace, Menlo, Consolas, monospace" font-size="11">163 (2.5%)</text></g>
<text x="20" y="540" font-size="11" fill="#9aa3ad">Source: MechanicDB, mechanicdb.dataengineered.io/stats · build 2026-07-13 · CC BY 4.0</text>
</svg>
