<svg xmlns="http://www.w3.org/2000/svg" viewBox="0 0 720 282" width="720" height="282" role="img" aria-labelledby="t d" font-family="'Archivo', system-ui, -apple-system, 'Segoe UI', sans-serif" font-size="12">
<title id="t">Upper parts-cost estimate per fix</title><desc id="d">56,561 fixes by est_parts_cost_max_usd</desc>
<rect width="720" height="282" fill="#1b1e22"/>
<text x="20" y="26" font-size="15" font-weight="600" fill="#f1efe8">Upper parts-cost estimate per fix</text>
<text x="20" y="44" font-size="12" fill="#9aa3ad">56,561 fixes by est_parts_cost_max_usd</text>
<line x1="152" y1="56" x2="152" y2="242" stroke="#2e333a" stroke-width="1"/>
<g><title>under $50: 21,394 (37.8%)</title><rect x="0" y="62" width="720" height="30" fill="transparent"/><path d="M152 68.0 h464.0 a4 4 0 0 1 4 4 v10 a4 4 0 0 1 -4 4 h-464.0 z" fill="#ffb000"/><text x="142" y="81.0" text-anchor="end" fill="#f1efe8">under $50</text><text x="628.0" y="81.0" fill="#9aa3ad" font-family="'IBM Plex Mono', ui-monospace, Menlo, Consolas, monospace" font-size="11">21,394 (37.8%)</text></g>
<g><title>$50 to $99: 14,428 (25.5%)</title><rect x="0" y="92" width="720" height="30" fill="transparent"/><path d="M152 98.0 h311.6 a4 4 0 0 1 4 4 v10 a4 4 0 0 1 -4 4 h-311.6 z" fill="#ffb000"/><text x="142" y="111.0" text-anchor="end" fill="#f1efe8">$50 to $99</text><text x="475.6" y="111.0" fill="#9aa3ad" font-family="'IBM Plex Mono', ui-monospace, Menlo, Consolas, monospace" font-size="11">14,428 (25.5%)</text></g>
<g><title>$100 to $249: 9,530 (16.8%)</title><rect x="0" y="122" width="720" height="30" fill="transparent"/><path d="M152 128.0 h204.5 a4 4 0 0 1 4 4 v10 a4 4 0 0 1 -4 4 h-204.5 z" fill="#ffb000"/><text x="142" y="141.0" text-anchor="end" fill="#f1efe8">$100 to $249</text><text x="368.5" y="141.0" fill="#9aa3ad" font-family="'IBM Plex Mono', ui-monospace, Menlo, Consolas, monospace" font-size="11">9,530 (16.8%)</text></g>
<g><title>$250 to $499: 5,702 (10.1%)</title><rect x="0" y="152" width="720" height="30" fill="transparent"/><path d="M152 158.0 h120.7 a4 4 0 0 1 4 4 v10 a4 4 0 0 1 -4 4 h-120.7 z" fill="#ffb000"/><text x="142" y="171.0" text-anchor="end" fill="#f1efe8">$250 to $499</text><text x="284.7" y="171.0" fill="#9aa3ad" font-family="'IBM Plex Mono', ui-monospace, Menlo, Consolas, monospace" font-size="11">5,702 (10.1%)</text></g>
<g><title>$500 to $999: 4,279 (7.6%)</title><rect x="0" y="182" width="720" height="30" fill="transparent"/><path d="M152 188.0 h89.6 a4 4 0 0 1 4 4 v10 a4 4 0 0 1 -4 4 h-89.6 z" fill="#ffb000"/><text x="142" y="201.0" text-anchor="end" fill="#f1efe8">$500 to $999</text><text x="253.6" y="201.0" fill="#9aa3ad" font-family="'IBM Plex Mono', ui-monospace, Menlo, Consolas, monospace" font-size="11">4,279 (7.6%)</text></g>
<g><title>$1,000 and above: 1,228 (2.2%)</title><rect x="0" y="212" width="720" height="30" fill="transparent"/><path d="M152 218.0 h22.9 a4 4 0 0 1 4 4 v10 a4 4 0 0 1 -4 4 h-22.9 z" fill="#ffb000"/><text x="142" y="231.0" text-anchor="end" fill="#f1efe8">$1,000 and above</text><text x="186.9" y="231.0" fill="#9aa3ad" font-family="'IBM Plex Mono', ui-monospace, Menlo, Consolas, monospace" font-size="11">1,228 (2.2%)</text></g>
<text x="20" y="270" font-size="11" fill="#9aa3ad">Source: MechanicDB, mechanicdb.dataengineered.io/stats · build 2026-07-13 · CC BY 4.0</text>
</svg>
